<svg viewBox="0 0 6 11" xmlns="http://www.w3.org/2000/svg">
<path d="M0.0784063 1.01866C0.0282258 0.968891 0 0.901141 0 0.830464C0 0.759788 0.0282258 0.692038 0.0784063 0.642267L0.640348 0.0803251C0.688449 0.0290733 0.755607 0 0.825895 0C0.896183 0 0.963341 0.0290733 1.01144 0.0803251L5.88337 4.95225C5.95796 5.02675 5.99991 5.12781 6 5.23323L6 5.37106C5.99991 5.47647 5.95796 5.57754 5.88337 5.65203L1.01144 10.524C0.963341 10.5752 0.896183 10.6043 0.825895 10.6043C0.755607 10.6043 0.688449 10.5752 0.640348 10.524L0.0784063 9.96202C0.0282258 9.91225 0 9.8445 0 9.77382C0 9.70314 0.0282258 9.63539 0.0784063 9.58562L4.36189 5.30214L0.0784063 1.01866Z"/>
</svg>
