<svg viewBox="0 0 601 234" fill="none" xmlns="http://www.w3.org/2000/svg">
<path d="M362.584 205.034C377.901 186.47 385.461 157.39 385.461 118C385.461 78.511 377.951 49.4289 362.733 30.964C347.611 12.3948 326.155 3.14999 298.511 3.14999C270.864 3.14999 249.359 12.3963 234.138 30.9661L234.137 30.9665C219.021 49.4312 211.561 78.5121 211.561 118C211.561 157.39 219.072 186.47 234.288 205.034L234.29 205.036C249.609 223.602 271.061 232.85 298.511 232.85C325.96 232.85 347.364 223.602 362.584 205.034ZM362.584 205.034C362.584 205.034 362.584 205.034 362.584 205.034L361.811 204.4L362.582 205.036C362.583 205.036 362.583 205.035 362.584 205.034ZM187.25 155.5V154.5H186.25H152.75V82V81H151.75H131.05H130.09L130.051 81.9592L127.09 154.5H34.7578L126.947 7.53138L127.908 6H126.1H100.15H99.5968L99.3028 6.46875L1.95283 161.719L1.80005 161.962V162.25V176.2V177.2H2.80005H127.05V229V230H128.05H151.75H152.75V229V177.2H186.25H187.25V176.2V155.5ZM330.372 200.708L330.367 200.711C321.762 206.285 311.161 209.1 298.511 209.1C285.864 209.1 275.213 206.286 266.506 200.711C257.946 195.067 251.206 185.581 246.353 172.115C241.607 158.667 239.211 140.495 239.211 117.55C239.211 94.9076 241.607 76.9367 246.352 63.5887C251.204 50.2223 257.943 40.8365 266.501 35.2918C275.209 29.715 285.862 26.9 298.511 26.9C311.158 26.9 321.756 29.7638 330.361 35.435L330.372 35.4421C339.026 40.9849 345.765 50.417 350.518 63.8828L350.52 63.889C355.365 77.3353 357.811 95.5055 357.811 118.45C357.811 141.093 355.365 159.063 350.521 172.409L350.519 172.415C345.767 185.78 339.028 195.164 330.372 200.708ZM414.797 149.5H413.797V150.5V171.2V172.2H414.797H448.297V224V225H449.297H472.997H473.997V224V172.2H598.247H599.247V171.2V157.25V156.962L599.094 156.719L501.744 1.46875L501.45 1H500.897H474.947H473.139L474.1 2.53138L566.289 149.5H473.957L470.996 76.9592L470.957 76H469.997H449.297H448.297V77V149.5H414.797Z" fill="white" stroke-width="2"/>
</svg>
